<?xml version="1.0" encoding="utf-8"?>
<svg version="1.1" xmlns:xlink="http://www.w3.org/1999/xlink" width="24px" height="24px" xmlns="http://www.w3.org/2000/svg">
  <g transform="matrix(1 0 0 1 -238 -335 )">
    <path d="M 250 335  C 256.72 335  262 340.28  262 347  C 262 353.72  256.72 359  250 359  C 243.28 359  238 353.72  238 347  C 238 340.28  243.28 335  250 335  Z " fill-rule="nonzero" fill="#0099cc" stroke="none" fill-opacity="0.6" />
    <path d="M 250 335.5  C 256.44 335.5  261.5 340.56  261.5 347  C 261.5 353.44  256.44 358.5  250 358.5  C 243.56 358.5  238.5 353.44  238.5 347  C 238.5 340.56  243.56 335.5  250 335.5  Z " stroke-width="1" stroke="#ffffff" fill="none" />
  </g>
</svg>